# xmcd CD database file
#
# Track frame offsets:
#	150
#	13172
#	27371
#	42685
#	57514
#	73532
#	86807
#	102435
#	115560
#	132136
#	147937
#	162112
#	179208
#	195838
#	213159
#
# Disc length: 3104 seconds
#
# Revision: 1
# Processed by: cddbd v1.5.2PL0 Copyright (c) Steve Scherf et al.
# Submitted via: CDex 1.51
#
DISCID=d70c1e0f
DTITLE=Various Artist - SF-P-007
DYEAR=1900
DGENRE=Blues
TTITLE0=Matt Monro - From Russia With Love
TTITLE1=Shirley Bassey - Goldfinger
TTITLE2=Tom Jones - Thunderball
TTITLE3=Nancy Sinatra - You Only Live Twice
TTITLE4=Louis Armstrong - We Have All The Time In The World
TTITLE5=Shirley Bassey - Diamonds Are Forever
TTITLE6=Paul McCartney and Wings - Live And Let Die
TTITLE7=Lulu - The Man With The Golden Gun
TTITLE8=Carly Simon - Nobody Does It Better
TTITLE9=Shirley Bassey - Moonraker
TTITLE10=Sheena Easton - For Your Eyes Only
TTITLE11=Duran Duran - A View To A Kill
TTITLE12=Tina Turner - Golden Eye
TTITLE13=Madonna - Die Another Day
TTITLE14=Chris Cornell - You Know My Name
EXTD=
EXTT0=
EXTT1=
EXTT2=
EXTT3=
EXTT4=
EXTT5=
EXTT6=
EXTT7=
EXTT8=
EXTT9=
EXTT10=
EXTT11=
EXTT12=
EXTT13=
EXTT14=
PLAYORDER=
